<mxfile host="app.diagrams.net" modified="2023-07-19T16:45:58.706Z" agent="Mozilla/5.0 (Windows NT 10.0; Win64; x64) AppleWebKit/537.36 (KHTML, like Gecko) Chrome/114.0.0.0 Safari/537.36 Edg/114.0.1823.82" etag="EVTymPUtdTgsWCUG9yPR" version="21.6.2" type="github" pages="2">
  <diagram name="TITIP.IN" id="L3-sZeAZvc1F-opA7N8f">
    <mxGraphModel dx="1492" dy="960" grid="1" gridSize="10" guides="1" tooltips="1" connect="1" arrows="1" fold="1" page="1" pageScale="1" pageWidth="850" pageHeight="1100" math="0" shadow="0">
      <root>
        <mxCell id="0" />
        <mxCell id="1" parent="0" />
        <mxCell id="sxi4cEkRbGD_M7ixQxOK-1" value="START" style="rounded=1;whiteSpace=wrap;html=1;" vertex="1" parent="1">
          <mxGeometry x="200" y="120" width="120" height="60" as="geometry" />
        </mxCell>
        <mxCell id="sxi4cEkRbGD_M7ixQxOK-13" style="edgeStyle=orthogonalEdgeStyle;rounded=0;orthogonalLoop=1;jettySize=auto;html=1;exitX=1;exitY=0.5;exitDx=0;exitDy=0;entryX=0;entryY=0.5;entryDx=0;entryDy=0;" edge="1" parent="1" source="sxi4cEkRbGD_M7ixQxOK-2" target="sxi4cEkRbGD_M7ixQxOK-12">
          <mxGeometry relative="1" as="geometry" />
        </mxCell>
        <mxCell id="sxi4cEkRbGD_M7ixQxOK-2" value="Mitra?&lt;br&gt;N/Y" style="rhombus;whiteSpace=wrap;html=1;" vertex="1" parent="1">
          <mxGeometry x="200" y="810" width="120" height="80" as="geometry" />
        </mxCell>
        <mxCell id="sxi4cEkRbGD_M7ixQxOK-3" value="Buka web titip.in" style="shape=parallelogram;perimeter=parallelogramPerimeter;whiteSpace=wrap;html=1;fixedSize=1;" vertex="1" parent="1">
          <mxGeometry x="200" y="200" width="120" height="60" as="geometry" />
        </mxCell>
        <mxCell id="sxi4cEkRbGD_M7ixQxOK-4" value="Beranda titip.in" style="rounded=0;whiteSpace=wrap;html=1;" vertex="1" parent="1">
          <mxGeometry x="200" y="290" width="120" height="60" as="geometry" />
        </mxCell>
        <mxCell id="sxi4cEkRbGD_M7ixQxOK-14" style="edgeStyle=orthogonalEdgeStyle;rounded=0;orthogonalLoop=1;jettySize=auto;html=1;exitX=1;exitY=0.5;exitDx=0;exitDy=0;entryX=0;entryY=0.5;entryDx=0;entryDy=0;" edge="1" parent="1" source="sxi4cEkRbGD_M7ixQxOK-5" target="sxi4cEkRbGD_M7ixQxOK-11">
          <mxGeometry relative="1" as="geometry" />
        </mxCell>
        <mxCell id="sxi4cEkRbGD_M7ixQxOK-5" value="Konsumen?&lt;br&gt;N/Y" style="rhombus;whiteSpace=wrap;html=1;" vertex="1" parent="1">
          <mxGeometry x="200" y="710" width="120" height="80" as="geometry" />
        </mxCell>
        <mxCell id="sxi4cEkRbGD_M7ixQxOK-6" value="Pilih daftar mitra" style="shape=parallelogram;perimeter=parallelogramPerimeter;whiteSpace=wrap;html=1;fixedSize=1;" vertex="1" parent="1">
          <mxGeometry x="200" y="550" width="120" height="60" as="geometry" />
        </mxCell>
        <mxCell id="sxi4cEkRbGD_M7ixQxOK-7" value="" style="whiteSpace=wrap;html=1;" vertex="1" parent="1">
          <mxGeometry x="200" y="370" width="120" height="60" as="geometry" />
        </mxCell>
        <mxCell id="sxi4cEkRbGD_M7ixQxOK-9" value="Sudah punya akun? N/Y" style="rhombus;whiteSpace=wrap;html=1;" vertex="1" parent="1">
          <mxGeometry x="200" y="450" width="120" height="80" as="geometry" />
        </mxCell>
        <mxCell id="sxi4cEkRbGD_M7ixQxOK-10" value="Masukkan data email dan password" style="shape=parallelogram;perimeter=parallelogramPerimeter;whiteSpace=wrap;html=1;fixedSize=1;" vertex="1" parent="1">
          <mxGeometry x="200" y="630" width="120" height="60" as="geometry" />
        </mxCell>
        <mxCell id="sxi4cEkRbGD_M7ixQxOK-11" value="Pilih sebagai KONSUMEN" style="shape=parallelogram;perimeter=parallelogramPerimeter;whiteSpace=wrap;html=1;fixedSize=1;" vertex="1" parent="1">
          <mxGeometry x="350" y="720" width="120" height="60" as="geometry" />
        </mxCell>
        <mxCell id="sxi4cEkRbGD_M7ixQxOK-12" value="Pilih sebagai&lt;br&gt;MITRA" style="shape=parallelogram;perimeter=parallelogramPerimeter;whiteSpace=wrap;html=1;fixedSize=1;" vertex="1" parent="1">
          <mxGeometry x="340" y="820" width="120" height="60" as="geometry" />
        </mxCell>
        <mxCell id="sxi4cEkRbGD_M7ixQxOK-15" value="" style="rhombus;whiteSpace=wrap;html=1;" vertex="1" parent="1">
          <mxGeometry x="220" y="910" width="80" height="80" as="geometry" />
        </mxCell>
      </root>
    </mxGraphModel>
  </diagram>
  <diagram id="7kIImK7Ijg0jxkmaqfD0" name="ACROSS">
    <mxGraphModel dx="746" dy="480" grid="1" gridSize="10" guides="1" tooltips="1" connect="1" arrows="1" fold="1" page="1" pageScale="1" pageWidth="850" pageHeight="1100" math="0" shadow="0">
      <root>
        <mxCell id="0" />
        <mxCell id="1" parent="0" />
      </root>
    </mxGraphModel>
  </diagram>
</mxfile>
